<mxfile host="app.diagrams.net" modified="2021-12-10T19:26:54.405Z" agent="5.0 (Macintosh; Intel Mac OS X 10_15_7) AppleWebKit/537.36 (KHTML, like Gecko) Chrome/96.0.4664.93 Safari/537.36" etag="WbbuKIq89p7q9B8LQ1Lr" version="15.9.4" type="github">
  <diagram id="OaNjyxevK-4zABXbeRmA" name="Page-1">
    <mxGraphModel dx="1351" dy="760" grid="1" gridSize="10" guides="1" tooltips="1" connect="1" arrows="1" fold="1" page="1" pageScale="1" pageWidth="827" pageHeight="1169" math="0" shadow="0">
      <root>
        <mxCell id="0" />
        <mxCell id="1" parent="0" />
        <mxCell id="JWQSCCIdsSd6pLvR8Nr2-3" style="edgeStyle=orthogonalEdgeStyle;rounded=0;orthogonalLoop=1;jettySize=auto;html=1;entryX=0.5;entryY=0;entryDx=0;entryDy=0;fontStyle=1;fontSize=13;" edge="1" parent="1" source="JWQSCCIdsSd6pLvR8Nr2-1" target="JWQSCCIdsSd6pLvR8Nr2-2">
          <mxGeometry relative="1" as="geometry" />
        </mxCell>
        <mxCell id="JWQSCCIdsSd6pLvR8Nr2-6" style="edgeStyle=orthogonalEdgeStyle;rounded=0;orthogonalLoop=1;jettySize=auto;html=1;entryX=0.5;entryY=0;entryDx=0;entryDy=0;fontStyle=1;fontSize=13;" edge="1" parent="1" source="JWQSCCIdsSd6pLvR8Nr2-1" target="JWQSCCIdsSd6pLvR8Nr2-5">
          <mxGeometry relative="1" as="geometry" />
        </mxCell>
        <mxCell id="JWQSCCIdsSd6pLvR8Nr2-11" style="edgeStyle=orthogonalEdgeStyle;rounded=0;orthogonalLoop=1;jettySize=auto;html=1;entryX=0.5;entryY=0;entryDx=0;entryDy=0;fontStyle=1;fontSize=13;" edge="1" parent="1" source="JWQSCCIdsSd6pLvR8Nr2-1" target="JWQSCCIdsSd6pLvR8Nr2-9">
          <mxGeometry relative="1" as="geometry" />
        </mxCell>
        <mxCell id="JWQSCCIdsSd6pLvR8Nr2-12" style="edgeStyle=orthogonalEdgeStyle;rounded=0;orthogonalLoop=1;jettySize=auto;html=1;entryX=0.5;entryY=0;entryDx=0;entryDy=0;fontStyle=1;fontSize=13;" edge="1" parent="1" source="JWQSCCIdsSd6pLvR8Nr2-1" target="JWQSCCIdsSd6pLvR8Nr2-10">
          <mxGeometry relative="1" as="geometry" />
        </mxCell>
        <mxCell id="JWQSCCIdsSd6pLvR8Nr2-37" style="edgeStyle=orthogonalEdgeStyle;rounded=0;orthogonalLoop=1;jettySize=auto;html=1;fontStyle=1;fontSize=13;" edge="1" parent="1" source="JWQSCCIdsSd6pLvR8Nr2-1" target="JWQSCCIdsSd6pLvR8Nr2-13">
          <mxGeometry relative="1" as="geometry" />
        </mxCell>
        <mxCell id="JWQSCCIdsSd6pLvR8Nr2-59" style="edgeStyle=orthogonalEdgeStyle;rounded=0;orthogonalLoop=1;jettySize=auto;html=1;exitX=0;exitY=0.5;exitDx=0;exitDy=0;fontStyle=1;fontSize=13;" edge="1" parent="1" source="JWQSCCIdsSd6pLvR8Nr2-1" target="JWQSCCIdsSd6pLvR8Nr2-7">
          <mxGeometry relative="1" as="geometry" />
        </mxCell>
        <mxCell id="JWQSCCIdsSd6pLvR8Nr2-1" value="Moodle" style="rounded=1;whiteSpace=wrap;html=1;fontStyle=1;fontSize=13;" vertex="1" parent="1">
          <mxGeometry x="536" y="110" width="74" height="30" as="geometry" />
        </mxCell>
        <mxCell id="JWQSCCIdsSd6pLvR8Nr2-76" style="edgeStyle=orthogonalEdgeStyle;rounded=0;orthogonalLoop=1;jettySize=auto;html=1;fontStyle=1;fontSize=13;" edge="1" parent="1" source="JWQSCCIdsSd6pLvR8Nr2-2" target="JWQSCCIdsSd6pLvR8Nr2-14">
          <mxGeometry relative="1" as="geometry" />
        </mxCell>
        <mxCell id="JWQSCCIdsSd6pLvR8Nr2-2" value="Събиране на изискванията" style="whiteSpace=wrap;html=1;fillColor=#fff2cc;strokeColor=#d6b656;fontStyle=1;fontSize=13;" vertex="1" parent="1">
          <mxGeometry x="100" y="160" width="100" height="40" as="geometry" />
        </mxCell>
        <mxCell id="JWQSCCIdsSd6pLvR8Nr2-34" style="edgeStyle=orthogonalEdgeStyle;rounded=0;orthogonalLoop=1;jettySize=auto;html=1;exitX=0;exitY=0.5;exitDx=0;exitDy=0;fontStyle=1;fontSize=13;" edge="1" parent="1" source="JWQSCCIdsSd6pLvR8Nr2-5" target="JWQSCCIdsSd6pLvR8Nr2-17">
          <mxGeometry relative="1" as="geometry" />
        </mxCell>
        <mxCell id="JWQSCCIdsSd6pLvR8Nr2-35" style="edgeStyle=orthogonalEdgeStyle;rounded=0;orthogonalLoop=1;jettySize=auto;html=1;fontStyle=1;fontSize=13;" edge="1" parent="1" source="JWQSCCIdsSd6pLvR8Nr2-5" target="JWQSCCIdsSd6pLvR8Nr2-21">
          <mxGeometry relative="1" as="geometry" />
        </mxCell>
        <mxCell id="JWQSCCIdsSd6pLvR8Nr2-36" style="edgeStyle=orthogonalEdgeStyle;rounded=0;orthogonalLoop=1;jettySize=auto;html=1;exitX=1;exitY=0.5;exitDx=0;exitDy=0;entryX=0.5;entryY=0;entryDx=0;entryDy=0;fontStyle=1;fontSize=13;" edge="1" parent="1" source="JWQSCCIdsSd6pLvR8Nr2-5" target="JWQSCCIdsSd6pLvR8Nr2-22">
          <mxGeometry relative="1" as="geometry" />
        </mxCell>
        <mxCell id="JWQSCCIdsSd6pLvR8Nr2-5" value="Set-up и създаване на база данни" style="whiteSpace=wrap;html=1;fillColor=#fff2cc;strokeColor=#d6b656;fontStyle=1;fontSize=13;" vertex="1" parent="1">
          <mxGeometry x="265" y="300" width="120" height="45" as="geometry" />
        </mxCell>
        <mxCell id="JWQSCCIdsSd6pLvR8Nr2-41" style="edgeStyle=orthogonalEdgeStyle;rounded=0;orthogonalLoop=1;jettySize=auto;html=1;entryX=0.5;entryY=0;entryDx=0;entryDy=0;fontStyle=1;fontSize=13;" edge="1" parent="1" source="JWQSCCIdsSd6pLvR8Nr2-7" target="JWQSCCIdsSd6pLvR8Nr2-39">
          <mxGeometry relative="1" as="geometry" />
        </mxCell>
        <mxCell id="JWQSCCIdsSd6pLvR8Nr2-63" style="edgeStyle=orthogonalEdgeStyle;rounded=0;orthogonalLoop=1;jettySize=auto;html=1;entryX=0.5;entryY=0;entryDx=0;entryDy=0;fontStyle=1;fontSize=13;" edge="1" parent="1" source="JWQSCCIdsSd6pLvR8Nr2-7" target="JWQSCCIdsSd6pLvR8Nr2-42">
          <mxGeometry relative="1" as="geometry" />
        </mxCell>
        <mxCell id="JWQSCCIdsSd6pLvR8Nr2-64" style="edgeStyle=orthogonalEdgeStyle;rounded=0;orthogonalLoop=1;jettySize=auto;html=1;entryX=0.5;entryY=0;entryDx=0;entryDy=0;fontStyle=1;fontSize=13;" edge="1" parent="1" source="JWQSCCIdsSd6pLvR8Nr2-7" target="JWQSCCIdsSd6pLvR8Nr2-38">
          <mxGeometry relative="1" as="geometry" />
        </mxCell>
        <mxCell id="JWQSCCIdsSd6pLvR8Nr2-7" value="Потребителски профил" style="whiteSpace=wrap;html=1;fillColor=#fff2cc;strokeColor=#d6b656;fontStyle=1;fontSize=13;" vertex="1" parent="1">
          <mxGeometry x="434" y="160" width="100" height="40" as="geometry" />
        </mxCell>
        <mxCell id="JWQSCCIdsSd6pLvR8Nr2-73" style="edgeStyle=orthogonalEdgeStyle;rounded=0;orthogonalLoop=1;jettySize=auto;html=1;fontStyle=1;fontSize=13;" edge="1" parent="1" source="JWQSCCIdsSd6pLvR8Nr2-9" target="JWQSCCIdsSd6pLvR8Nr2-68">
          <mxGeometry relative="1" as="geometry" />
        </mxCell>
        <mxCell id="JWQSCCIdsSd6pLvR8Nr2-74" style="edgeStyle=orthogonalEdgeStyle;rounded=0;orthogonalLoop=1;jettySize=auto;html=1;exitX=0;exitY=0.5;exitDx=0;exitDy=0;fontStyle=1;fontSize=13;" edge="1" parent="1" source="JWQSCCIdsSd6pLvR8Nr2-9" target="JWQSCCIdsSd6pLvR8Nr2-67">
          <mxGeometry relative="1" as="geometry" />
        </mxCell>
        <mxCell id="JWQSCCIdsSd6pLvR8Nr2-75" style="edgeStyle=orthogonalEdgeStyle;rounded=0;orthogonalLoop=1;jettySize=auto;html=1;exitX=1;exitY=0.5;exitDx=0;exitDy=0;entryX=0.5;entryY=0;entryDx=0;entryDy=0;fontStyle=1;fontSize=13;" edge="1" parent="1" source="JWQSCCIdsSd6pLvR8Nr2-9" target="JWQSCCIdsSd6pLvR8Nr2-70">
          <mxGeometry relative="1" as="geometry" />
        </mxCell>
        <mxCell id="JWQSCCIdsSd6pLvR8Nr2-9" value="Онлайн обучение" style="whiteSpace=wrap;html=1;fillColor=#fff2cc;strokeColor=#d6b656;fontStyle=1;fontSize=13;" vertex="1" parent="1">
          <mxGeometry x="620" y="285" width="110" height="40" as="geometry" />
        </mxCell>
        <mxCell id="JWQSCCIdsSd6pLvR8Nr2-46" style="edgeStyle=orthogonalEdgeStyle;rounded=0;orthogonalLoop=1;jettySize=auto;html=1;entryX=0.5;entryY=0;entryDx=0;entryDy=0;fontStyle=1;fontSize=13;" edge="1" parent="1" source="JWQSCCIdsSd6pLvR8Nr2-10" target="JWQSCCIdsSd6pLvR8Nr2-45">
          <mxGeometry relative="1" as="geometry" />
        </mxCell>
        <mxCell id="JWQSCCIdsSd6pLvR8Nr2-10" value="Верификация и валидация" style="whiteSpace=wrap;html=1;fillColor=#fff2cc;strokeColor=#d6b656;fontStyle=1;fontSize=13;" vertex="1" parent="1">
          <mxGeometry x="740" y="160" width="110" height="40" as="geometry" />
        </mxCell>
        <mxCell id="JWQSCCIdsSd6pLvR8Nr2-48" style="edgeStyle=orthogonalEdgeStyle;rounded=0;orthogonalLoop=1;jettySize=auto;html=1;entryX=0.5;entryY=0;entryDx=0;entryDy=0;fontStyle=1;fontSize=13;" edge="1" parent="1" source="JWQSCCIdsSd6pLvR8Nr2-13" target="JWQSCCIdsSd6pLvR8Nr2-47">
          <mxGeometry relative="1" as="geometry" />
        </mxCell>
        <mxCell id="JWQSCCIdsSd6pLvR8Nr2-13" value="Deployment" style="whiteSpace=wrap;html=1;fillColor=#fff2cc;strokeColor=#d6b656;fontStyle=1;fontSize=13;" vertex="1" parent="1">
          <mxGeometry x="880" y="162.5" width="120" height="40" as="geometry" />
        </mxCell>
        <mxCell id="JWQSCCIdsSd6pLvR8Nr2-77" style="edgeStyle=orthogonalEdgeStyle;rounded=0;orthogonalLoop=1;jettySize=auto;html=1;entryX=0.5;entryY=0;entryDx=0;entryDy=0;fontStyle=1;fontSize=13;" edge="1" parent="1" source="JWQSCCIdsSd6pLvR8Nr2-14" target="JWQSCCIdsSd6pLvR8Nr2-16">
          <mxGeometry relative="1" as="geometry" />
        </mxCell>
        <mxCell id="JWQSCCIdsSd6pLvR8Nr2-14" value="Събиране на изискванията" style="whiteSpace=wrap;html=1;fillColor=#d5e8d4;strokeColor=#82b366;fontStyle=1;fontSize=13;" vertex="1" parent="1">
          <mxGeometry x="105" y="230" width="90" height="30" as="geometry" />
        </mxCell>
        <mxCell id="JWQSCCIdsSd6pLvR8Nr2-16" value="Изготвяне на спецификацията" style="whiteSpace=wrap;html=1;fontStyle=1;fontSize=13;" vertex="1" parent="1">
          <mxGeometry x="100" y="295" width="100" height="40" as="geometry" />
        </mxCell>
        <mxCell id="JWQSCCIdsSd6pLvR8Nr2-17" value="Конфигуриране на средата" style="whiteSpace=wrap;html=1;fillColor=#d5e8d4;strokeColor=#82b366;fontStyle=1;fontSize=13;" vertex="1" parent="1">
          <mxGeometry x="170" y="370" width="95" height="50" as="geometry" />
        </mxCell>
        <mxCell id="JWQSCCIdsSd6pLvR8Nr2-28" style="edgeStyle=orthogonalEdgeStyle;rounded=0;orthogonalLoop=1;jettySize=auto;html=1;entryX=0;entryY=0.5;entryDx=0;entryDy=0;fontStyle=1;fontSize=13;" edge="1" parent="1" source="JWQSCCIdsSd6pLvR8Nr2-21" target="JWQSCCIdsSd6pLvR8Nr2-23">
          <mxGeometry relative="1" as="geometry" />
        </mxCell>
        <mxCell id="JWQSCCIdsSd6pLvR8Nr2-29" style="edgeStyle=orthogonalEdgeStyle;rounded=0;orthogonalLoop=1;jettySize=auto;html=1;entryX=0;entryY=0.5;entryDx=0;entryDy=0;fontStyle=1;fontSize=13;" edge="1" parent="1" source="JWQSCCIdsSd6pLvR8Nr2-21" target="JWQSCCIdsSd6pLvR8Nr2-24">
          <mxGeometry relative="1" as="geometry" />
        </mxCell>
        <mxCell id="JWQSCCIdsSd6pLvR8Nr2-21" value="Създаване на база данни" style="whiteSpace=wrap;html=1;fillColor=#d5e8d4;strokeColor=#82b366;fontStyle=1;fontSize=13;" vertex="1" parent="1">
          <mxGeometry x="280" y="375" width="90" height="40" as="geometry" />
        </mxCell>
        <mxCell id="JWQSCCIdsSd6pLvR8Nr2-31" style="edgeStyle=orthogonalEdgeStyle;rounded=0;orthogonalLoop=1;jettySize=auto;html=1;entryX=0;entryY=0.5;entryDx=0;entryDy=0;fontStyle=1;fontSize=13;" edge="1" parent="1" source="JWQSCCIdsSd6pLvR8Nr2-22" target="JWQSCCIdsSd6pLvR8Nr2-30">
          <mxGeometry relative="1" as="geometry" />
        </mxCell>
        <mxCell id="JWQSCCIdsSd6pLvR8Nr2-22" value="UX/UI" style="whiteSpace=wrap;html=1;fillColor=#d5e8d4;strokeColor=#82b366;fontStyle=1;fontSize=13;" vertex="1" parent="1">
          <mxGeometry x="405" y="375" width="65" height="40" as="geometry" />
        </mxCell>
        <mxCell id="JWQSCCIdsSd6pLvR8Nr2-23" value="Дизайн на база данни" style="whiteSpace=wrap;html=1;fontStyle=1;fontSize=13;" vertex="1" parent="1">
          <mxGeometry x="345" y="430" width="70" height="40" as="geometry" />
        </mxCell>
        <mxCell id="JWQSCCIdsSd6pLvR8Nr2-24" value="Създаване на база данни" style="whiteSpace=wrap;html=1;fontStyle=1;fontSize=13;" vertex="1" parent="1">
          <mxGeometry x="345" y="490" width="75" height="50" as="geometry" />
        </mxCell>
        <mxCell id="JWQSCCIdsSd6pLvR8Nr2-30" value="Дизайн" style="whiteSpace=wrap;html=1;fontStyle=1;fontSize=13;" vertex="1" parent="1">
          <mxGeometry x="465" y="430" width="50" height="30" as="geometry" />
        </mxCell>
        <mxCell id="JWQSCCIdsSd6pLvR8Nr2-38" value="Вход/Регистрация" style="whiteSpace=wrap;html=1;fillColor=#d5e8d4;strokeColor=#82b366;fontStyle=1;fontSize=13;" vertex="1" parent="1">
          <mxGeometry x="350" y="225" width="80" height="50" as="geometry" />
        </mxCell>
        <mxCell id="JWQSCCIdsSd6pLvR8Nr2-39" value="Профил" style="whiteSpace=wrap;html=1;fillColor=#d5e8d4;strokeColor=#82b366;fontStyle=1;fontSize=13;" vertex="1" parent="1">
          <mxGeometry x="444" y="235" width="80" height="40" as="geometry" />
        </mxCell>
        <mxCell id="JWQSCCIdsSd6pLvR8Nr2-42" value="Тестване" style="whiteSpace=wrap;html=1;fillColor=#d5e8d4;strokeColor=#82b366;fontStyle=1;fontSize=13;" vertex="1" parent="1">
          <mxGeometry x="540" y="232.5" width="70" height="35" as="geometry" />
        </mxCell>
        <mxCell id="JWQSCCIdsSd6pLvR8Nr2-55" style="edgeStyle=orthogonalEdgeStyle;rounded=0;orthogonalLoop=1;jettySize=auto;html=1;entryX=0;entryY=0.5;entryDx=0;entryDy=0;fontStyle=1;fontSize=13;" edge="1" parent="1" source="JWQSCCIdsSd6pLvR8Nr2-45" target="JWQSCCIdsSd6pLvR8Nr2-51">
          <mxGeometry relative="1" as="geometry" />
        </mxCell>
        <mxCell id="JWQSCCIdsSd6pLvR8Nr2-56" style="edgeStyle=orthogonalEdgeStyle;rounded=0;orthogonalLoop=1;jettySize=auto;html=1;entryX=0;entryY=0.5;entryDx=0;entryDy=0;fontStyle=1;fontSize=13;" edge="1" parent="1" source="JWQSCCIdsSd6pLvR8Nr2-45" target="JWQSCCIdsSd6pLvR8Nr2-52">
          <mxGeometry relative="1" as="geometry" />
        </mxCell>
        <mxCell id="JWQSCCIdsSd6pLvR8Nr2-57" style="edgeStyle=orthogonalEdgeStyle;rounded=0;orthogonalLoop=1;jettySize=auto;html=1;entryX=0;entryY=0.5;entryDx=0;entryDy=0;fontStyle=1;fontSize=13;" edge="1" parent="1" source="JWQSCCIdsSd6pLvR8Nr2-45" target="JWQSCCIdsSd6pLvR8Nr2-53">
          <mxGeometry relative="1" as="geometry" />
        </mxCell>
        <mxCell id="JWQSCCIdsSd6pLvR8Nr2-58" style="edgeStyle=orthogonalEdgeStyle;rounded=0;orthogonalLoop=1;jettySize=auto;html=1;entryX=0;entryY=0.5;entryDx=0;entryDy=0;fontStyle=1;fontSize=13;" edge="1" parent="1" source="JWQSCCIdsSd6pLvR8Nr2-45" target="JWQSCCIdsSd6pLvR8Nr2-54">
          <mxGeometry relative="1" as="geometry" />
        </mxCell>
        <mxCell id="JWQSCCIdsSd6pLvR8Nr2-45" value="Тестване според изискванията" style="whiteSpace=wrap;html=1;fillColor=#d5e8d4;strokeColor=#82b366;fontStyle=1;fontSize=13;" vertex="1" parent="1">
          <mxGeometry x="750" y="225" width="90" height="50" as="geometry" />
        </mxCell>
        <mxCell id="JWQSCCIdsSd6pLvR8Nr2-50" style="edgeStyle=orthogonalEdgeStyle;rounded=0;orthogonalLoop=1;jettySize=auto;html=1;entryX=0;entryY=0.5;entryDx=0;entryDy=0;fontStyle=1;fontSize=13;" edge="1" parent="1" source="JWQSCCIdsSd6pLvR8Nr2-47" target="JWQSCCIdsSd6pLvR8Nr2-49">
          <mxGeometry relative="1" as="geometry" />
        </mxCell>
        <mxCell id="JWQSCCIdsSd6pLvR8Nr2-47" value="Infrastructure setup" style="whiteSpace=wrap;html=1;fillColor=#d5e8d4;strokeColor=#82b366;fontStyle=1;fontSize=13;" vertex="1" parent="1">
          <mxGeometry x="900" y="227.5" width="80" height="35" as="geometry" />
        </mxCell>
        <mxCell id="JWQSCCIdsSd6pLvR8Nr2-49" value="Deployed application" style="whiteSpace=wrap;html=1;fontStyle=1;fontSize=13;" vertex="1" parent="1">
          <mxGeometry x="960" y="287.5" width="80" height="40" as="geometry" />
        </mxCell>
        <mxCell id="JWQSCCIdsSd6pLvR8Nr2-51" value="Интеграционни тестове" style="whiteSpace=wrap;html=1;fontStyle=1;fontSize=13;" vertex="1" parent="1">
          <mxGeometry x="820" y="290" width="100" height="50" as="geometry" />
        </mxCell>
        <mxCell id="JWQSCCIdsSd6pLvR8Nr2-52" value="Системни тестове" style="whiteSpace=wrap;html=1;fontStyle=1;fontSize=13;" vertex="1" parent="1">
          <mxGeometry x="820" y="350" width="100" height="50" as="geometry" />
        </mxCell>
        <mxCell id="JWQSCCIdsSd6pLvR8Nr2-53" value="Alpha тестване" style="whiteSpace=wrap;html=1;fontStyle=1;fontSize=13;" vertex="1" parent="1">
          <mxGeometry x="820" y="420" width="100" height="40" as="geometry" />
        </mxCell>
        <mxCell id="JWQSCCIdsSd6pLvR8Nr2-54" value="Beta тестване" style="whiteSpace=wrap;html=1;fontStyle=1;fontSize=13;" vertex="1" parent="1">
          <mxGeometry x="820" y="480" width="100" height="40" as="geometry" />
        </mxCell>
        <mxCell id="JWQSCCIdsSd6pLvR8Nr2-67" value="Лекции" style="whiteSpace=wrap;html=1;fillColor=#d5e8d4;strokeColor=#82b366;fontStyle=1;fontSize=13;" vertex="1" parent="1">
          <mxGeometry x="560" y="360" width="70" height="30" as="geometry" />
        </mxCell>
        <mxCell id="JWQSCCIdsSd6pLvR8Nr2-68" value="Ресурси" style="whiteSpace=wrap;html=1;fillColor=#d5e8d4;strokeColor=#82b366;fontStyle=1;fontSize=13;" vertex="1" parent="1">
          <mxGeometry x="640" y="360" width="70" height="30" as="geometry" />
        </mxCell>
        <mxCell id="JWQSCCIdsSd6pLvR8Nr2-70" value="Оценки" style="whiteSpace=wrap;html=1;fillColor=#d5e8d4;strokeColor=#82b366;fontStyle=1;fontSize=13;" vertex="1" parent="1">
          <mxGeometry x="720" y="360" width="70" height="30" as="geometry" />
        </mxCell>
      </root>
    </mxGraphModel>
  </diagram>
</mxfile>
